# xmcd
#
# Track frame offsets:
#	150
#	13295
#	25545
#	41895
#	54533
#	66628
#	77849
#	89251
#	103248
#	123688
#	142345
#	158655
#
# Disc length: 2248 seconds
# Revision: 0
# Processed by: cddbd v1.5.2PL0 Copyright (c) Steve Scherf et al.
# Submitted via: dBpowerAMP V12.0
#
DISCID=af08c60c
DTITLE=Eilen Jewell - Letters from Sinners and Strangers
DYEAR=2007
DGENRE=Country
TTITLE0=Rich Man's World
TTITLE1=Dusty Boxcar Wall
TTITLE2=High Shelf Booze
TTITLE3=Thanks a Lot
TTITLE4=Heartache Boulevard
TTITLE5=Too Hot to Sleep
TTITLE6=Where They Never Say Your Name
TTITLE7=How Long
TTITLE8=In the End
TTITLE9=If You Catch Me Stealing
TTITLE10=Walking Down the Line
TTITLE11=Blue Highway
EXTD=
EXTT0=
EXTT1=
EXTT2=
EXTT3=
EXTT4=
EXTT5=
EXTT6=
EXTT7=
EXTT8=
EXTT9=
EXTT10=
EXTT11=
PLAYORDER=
